<svg xmlns="http://www.w3.org/2000/svg" x="0px" y="0px" width="100" height="100" viewBox="0,0,256,256">
<g fill="#fbbe05" fill-rule="nonzero" stroke="none" stroke-width="1" stroke-linecap="butt" stroke-linejoin="miter" stroke-miterlimit="10" stroke-dasharray="" stroke-dashoffset="0" font-family="none" font-weight="none" font-size="none" text-anchor="none" style="mix-blend-mode: normal"><g transform="scale(5.12,5.12)"><path d="M6,4c-1.09,0 -2,0.91 -2,2v9.75v4.18945v2.75v4.17969v2.75v4.19141v10.18945c0,1.09 0.91,2 2,2h38c1.09,0 2,-0.91 2,-2v-38c0,-1.09 -0.91,-2 -2,-2zM6,6h38v38h-38v-9.13086l5.89063,3.12109c0.3,0.16 0.66898,0.16024 0.95898,-0.00977l17.15039,-9.76953c0.6,-0.34 0.68062,-1.19086 0.14063,-1.63086l-1.35156,-1.13086c-0.32,-0.27 -0.77844,-0.29984 -1.14844,-0.08984l-14.79102,8.37109c-0.3,0.17 -0.65898,0.17953 -0.95898,0.01953l-5.89062,-3.08398v-2.73437l5.75977,3.05859c0.31,0.16 0.6707,0.16024 0.9707,-0.00977l17.13867,-9.76953c0.61,-0.34 0.68039,-1.19086 0.15039,-1.63086l-1.34961,-1.13086c-0.33,-0.27 -0.79039,-0.29984 -1.15039,-0.08984l-14.79883,8.37109c-0.29,0.17 -0.65117,0.17953 -0.95117,0.01953l-5.76953,-3.01562v-2.73437l5.64063,2.99023c0.3,0.16 0.66898,0.16024 0.95898,-0.00977l17.15039,-9.76953c0.6,-0.34 0.68062,-1.19086 0.14063,-1.63086l-1.35156,-1.13086c-0.32,-0.27 -0.77844,-0.29984 -1.14844,-0.08984l-14.79102,8.37109c-0.3,0.17 -0.65898,0.17953 -0.95898,0.01953l-5.64062,-2.95312z"></path></g></g>
</svg>
